<svg xmlns="http://www.w3.org/2000/svg" version="1.1" xmlns:xlink="http://www.w3.org/1999/xlink" xmlns:svgjs="http://svgjs.com/svgjs" width="1440" height="1200" preserveAspectRatio="none" viewBox="0 0 1440 1200"><g mask="url(&quot;#SvgjsMask1034&quot;)" fill="none"><rect width="1440" height="1200" x="0" y="0" fill="rgba(82, 44, 139, 1)"></rect><path d="M794.44 644.87L805.48 644.87L805.48 762.57L794.44 762.57z" stroke="rgba(211, 20, 167, 1)"></path><path d="M965.46 1101.78L1068.32 1101.78L1068.32 1204.64L965.46 1204.64z" fill="rgba(121, 82, 179, 1)"></path><path d="M61.62 548.75L142.56 548.75L142.56 629.69L61.62 629.69z" fill="rgba(121, 82, 179, 1)"></path><path d="M1078.88 476.48L1151.63 476.48L1151.63 549.23L1078.88 549.23z" fill="rgba(53, 55, 122, 1)"></path><path d="M641.41 830.49 a63.92 63.92 0 1 0 127.84 0 a63.92 63.92 0 1 0 -127.84 0z" fill="rgba(121, 82, 179, 1)"></path><path d="M233.2 212.7L319.77 212.7L319.77 299.27L233.2 299.27z" stroke="rgba(121, 82, 179, 1)"></path><path d="M654.18 822.43L679.91 822.43L679.91 901.99L654.18 901.99z" stroke="rgba(211, 20, 167, 1)"></path><path d="M1091.08 527.35L1177.69 527.35L1177.69 613.96L1091.08 613.96z" fill="rgba(211, 20, 167, 1)"></path><path d="M1281.31 514.1L1351.28 514.1L1351.28 584.07L1281.31 584.07z" fill="rgba(53, 55, 122, 1)"></path><path d="M975.61 834.88L1006.84 834.88L1006.84 837.89L975.61 837.89z" fill="rgba(121, 82, 179, 1)"></path><path d="M1122.3 900.48L1171.66 900.48L1171.66 949.84L1122.3 949.84z" stroke="rgba(53, 55, 122, 1)"></path><path d="M40.11 753.55L42.42 753.55L42.42 834.59L40.11 834.59z" stroke="rgba(53, 55, 122, 1)"></path><path d="M823.83 1134.76L892.82 1134.76L892.82 1203.75L823.83 1203.75z" fill="rgba(211, 20, 167, 1)"></path><path d="M1400.39 875.44L1458.9 875.44L1458.9 909.29L1400.39 909.29z" stroke="rgba(121, 82, 179, 1)"></path><path d="M117.62 838.44 a71.57 71.57 0 1 0 143.14 0 a71.57 71.57 0 1 0 -143.14 0z" stroke="rgba(211, 20, 167, 1)"></path></g><defs><mask id="SvgjsMask1034"><rect width="1440" height="1200" fill="#ffffff"></rect></mask></defs></svg>